<mxfile host="app.diagrams.net" modified="2020-12-20T07:12:19.626Z" agent="5.0 (Windows NT 10.0; WOW64) AppleWebKit/537.36 (KHTML, like Gecko) coc_coc_browser/91.0.146 Chrome/85.0.4183.146 Safari/537.36" etag="fFw5h3aBCeLduYzjQDbz" version="14.1.1" type="github">
  <diagram id="9aJfzsWIPFKFNy_LZrzX" name="Page-1">
    <mxGraphModel dx="824" dy="486" grid="1" gridSize="10" guides="1" tooltips="1" connect="1" arrows="1" fold="1" page="1" pageScale="1" pageWidth="827" pageHeight="1169" math="0" shadow="0">
      <root>
        <mxCell id="0" />
        <mxCell id="1" parent="0" />
        <mxCell id="lmk_Pzj2UHXtX4NMEvki-2" value="" style="shape=internalStorage;whiteSpace=wrap;html=1;backgroundOutline=1;dx=60;dy=30;" vertex="1" parent="1">
          <mxGeometry x="40" y="80" width="120" height="70" as="geometry" />
        </mxCell>
        <mxCell id="lmk_Pzj2UHXtX4NMEvki-4" value="pk" style="text;html=1;strokeColor=none;fillColor=none;align=center;verticalAlign=middle;whiteSpace=wrap;rounded=0;" vertex="1" parent="1">
          <mxGeometry x="40" y="80" width="60" height="30" as="geometry" />
        </mxCell>
        <mxCell id="lmk_Pzj2UHXtX4NMEvki-5" value="ma_loai" style="text;html=1;strokeColor=none;fillColor=none;align=center;verticalAlign=middle;whiteSpace=wrap;rounded=0;" vertex="1" parent="1">
          <mxGeometry x="110" y="85" width="40" height="20" as="geometry" />
        </mxCell>
        <mxCell id="lmk_Pzj2UHXtX4NMEvki-6" value="ten_loai" style="text;html=1;strokeColor=none;fillColor=none;align=center;verticalAlign=middle;whiteSpace=wrap;rounded=0;" vertex="1" parent="1">
          <mxGeometry x="110" y="120" width="40" height="20" as="geometry" />
        </mxCell>
        <mxCell id="lmk_Pzj2UHXtX4NMEvki-7" value="" style="rounded=0;whiteSpace=wrap;html=1;" vertex="1" parent="1">
          <mxGeometry x="40" y="50" width="120" height="30" as="geometry" />
        </mxCell>
        <mxCell id="lmk_Pzj2UHXtX4NMEvki-8" value="loai" style="text;html=1;strokeColor=none;fillColor=none;align=center;verticalAlign=middle;whiteSpace=wrap;rounded=0;" vertex="1" parent="1">
          <mxGeometry x="80" y="55" width="40" height="20" as="geometry" />
        </mxCell>
        <mxCell id="lmk_Pzj2UHXtX4NMEvki-28" style="edgeStyle=orthogonalEdgeStyle;rounded=0;orthogonalLoop=1;jettySize=auto;html=1;entryX=0.992;entryY=0.157;entryDx=0;entryDy=0;entryPerimeter=0;" edge="1" parent="1" source="lmk_Pzj2UHXtX4NMEvki-10" target="lmk_Pzj2UHXtX4NMEvki-2">
          <mxGeometry relative="1" as="geometry" />
        </mxCell>
        <mxCell id="lmk_Pzj2UHXtX4NMEvki-10" value="" style="shape=internalStorage;whiteSpace=wrap;html=1;backgroundOutline=1;dx=60;dy=30;" vertex="1" parent="1">
          <mxGeometry x="210" y="80" width="130" height="170" as="geometry" />
        </mxCell>
        <mxCell id="lmk_Pzj2UHXtX4NMEvki-11" value="pk" style="text;html=1;strokeColor=none;fillColor=none;align=center;verticalAlign=middle;whiteSpace=wrap;rounded=0;" vertex="1" parent="1">
          <mxGeometry x="210" y="80" width="60" height="30" as="geometry" />
        </mxCell>
        <mxCell id="lmk_Pzj2UHXtX4NMEvki-12" value="ma_hh" style="text;html=1;strokeColor=none;fillColor=none;align=center;verticalAlign=middle;whiteSpace=wrap;rounded=0;" vertex="1" parent="1">
          <mxGeometry x="280" y="85" width="40" height="20" as="geometry" />
        </mxCell>
        <mxCell id="lmk_Pzj2UHXtX4NMEvki-13" value="ten_hh" style="text;html=1;strokeColor=none;fillColor=none;align=center;verticalAlign=middle;whiteSpace=wrap;rounded=0;" vertex="1" parent="1">
          <mxGeometry x="280" y="120" width="40" height="20" as="geometry" />
        </mxCell>
        <mxCell id="lmk_Pzj2UHXtX4NMEvki-14" value="" style="rounded=0;whiteSpace=wrap;html=1;" vertex="1" parent="1">
          <mxGeometry x="210" y="50" width="130" height="30" as="geometry" />
        </mxCell>
        <mxCell id="lmk_Pzj2UHXtX4NMEvki-15" value="hang_hoa" style="text;html=1;strokeColor=none;fillColor=none;align=center;verticalAlign=middle;whiteSpace=wrap;rounded=0;" vertex="1" parent="1">
          <mxGeometry x="250" y="55" width="40" height="20" as="geometry" />
        </mxCell>
        <mxCell id="lmk_Pzj2UHXtX4NMEvki-16" value="" style="shape=internalStorage;whiteSpace=wrap;html=1;backgroundOutline=1;dx=60;dy=30;" vertex="1" parent="1">
          <mxGeometry x="400" y="85" width="130" height="165" as="geometry" />
        </mxCell>
        <mxCell id="lmk_Pzj2UHXtX4NMEvki-17" value="pk" style="text;html=1;strokeColor=none;fillColor=none;align=center;verticalAlign=middle;whiteSpace=wrap;rounded=0;" vertex="1" parent="1">
          <mxGeometry x="400" y="85" width="60" height="30" as="geometry" />
        </mxCell>
        <mxCell id="lmk_Pzj2UHXtX4NMEvki-18" value="ma_gh" style="text;html=1;strokeColor=none;fillColor=none;align=center;verticalAlign=middle;whiteSpace=wrap;rounded=0;" vertex="1" parent="1">
          <mxGeometry x="470" y="90" width="40" height="20" as="geometry" />
        </mxCell>
        <mxCell id="lmk_Pzj2UHXtX4NMEvki-19" value="ma_hh" style="text;html=1;strokeColor=none;fillColor=none;align=center;verticalAlign=middle;whiteSpace=wrap;rounded=0;" vertex="1" parent="1">
          <mxGeometry x="470" y="125" width="40" height="20" as="geometry" />
        </mxCell>
        <mxCell id="lmk_Pzj2UHXtX4NMEvki-20" value="" style="rounded=0;whiteSpace=wrap;html=1;" vertex="1" parent="1">
          <mxGeometry x="400" y="55" width="130" height="30" as="geometry" />
        </mxCell>
        <mxCell id="lmk_Pzj2UHXtX4NMEvki-21" value="gio_hang" style="text;html=1;strokeColor=none;fillColor=none;align=center;verticalAlign=middle;whiteSpace=wrap;rounded=0;" vertex="1" parent="1">
          <mxGeometry x="440" y="60" width="40" height="20" as="geometry" />
        </mxCell>
        <mxCell id="lmk_Pzj2UHXtX4NMEvki-22" value="don_gia" style="text;html=1;strokeColor=none;fillColor=none;align=center;verticalAlign=middle;whiteSpace=wrap;rounded=0;" vertex="1" parent="1">
          <mxGeometry x="280" y="140" width="40" height="20" as="geometry" />
        </mxCell>
        <mxCell id="lmk_Pzj2UHXtX4NMEvki-24" value="giam_gia" style="text;html=1;strokeColor=none;fillColor=none;align=center;verticalAlign=middle;whiteSpace=wrap;rounded=0;" vertex="1" parent="1">
          <mxGeometry x="280" y="160" width="40" height="20" as="geometry" />
        </mxCell>
        <mxCell id="lmk_Pzj2UHXtX4NMEvki-25" value="hinh" style="text;html=1;strokeColor=none;fillColor=none;align=center;verticalAlign=middle;whiteSpace=wrap;rounded=0;" vertex="1" parent="1">
          <mxGeometry x="280" y="180" width="40" height="20" as="geometry" />
        </mxCell>
        <mxCell id="lmk_Pzj2UHXtX4NMEvki-26" value="ma_loai" style="text;html=1;strokeColor=none;fillColor=none;align=center;verticalAlign=middle;whiteSpace=wrap;rounded=0;" vertex="1" parent="1">
          <mxGeometry x="280" y="200" width="40" height="20" as="geometry" />
        </mxCell>
        <mxCell id="lmk_Pzj2UHXtX4NMEvki-27" value="mo_ta" style="text;html=1;strokeColor=none;fillColor=none;align=center;verticalAlign=middle;whiteSpace=wrap;rounded=0;" vertex="1" parent="1">
          <mxGeometry x="280" y="220" width="40" height="20" as="geometry" />
        </mxCell>
        <mxCell id="lmk_Pzj2UHXtX4NMEvki-29" value="fk" style="text;html=1;strokeColor=none;fillColor=none;align=center;verticalAlign=middle;whiteSpace=wrap;rounded=0;" vertex="1" parent="1">
          <mxGeometry x="220" y="200" width="40" height="20" as="geometry" />
        </mxCell>
        <mxCell id="lmk_Pzj2UHXtX4NMEvki-31" style="edgeStyle=orthogonalEdgeStyle;rounded=0;orthogonalLoop=1;jettySize=auto;html=1;entryX=0.992;entryY=0.082;entryDx=0;entryDy=0;entryPerimeter=0;" edge="1" parent="1" target="lmk_Pzj2UHXtX4NMEvki-10">
          <mxGeometry relative="1" as="geometry">
            <mxPoint x="400" y="135" as="sourcePoint" />
          </mxGeometry>
        </mxCell>
        <mxCell id="lmk_Pzj2UHXtX4NMEvki-30" value="fk" style="text;html=1;strokeColor=none;fillColor=none;align=center;verticalAlign=middle;whiteSpace=wrap;rounded=0;" vertex="1" parent="1">
          <mxGeometry x="410" y="125" width="40" height="20" as="geometry" />
        </mxCell>
        <mxCell id="lmk_Pzj2UHXtX4NMEvki-32" value="ten_hh" style="text;html=1;strokeColor=none;fillColor=none;align=center;verticalAlign=middle;whiteSpace=wrap;rounded=0;" vertex="1" parent="1">
          <mxGeometry x="470" y="180" width="40" height="20" as="geometry" />
        </mxCell>
        <mxCell id="lmk_Pzj2UHXtX4NMEvki-33" value="don_gia" style="text;html=1;strokeColor=none;fillColor=none;align=center;verticalAlign=middle;whiteSpace=wrap;rounded=0;" vertex="1" parent="1">
          <mxGeometry x="470" y="160" width="40" height="20" as="geometry" />
        </mxCell>
        <mxCell id="lmk_Pzj2UHXtX4NMEvki-34" value="hinh" style="text;html=1;strokeColor=none;fillColor=none;align=center;verticalAlign=middle;whiteSpace=wrap;rounded=0;" vertex="1" parent="1">
          <mxGeometry x="470" y="145" width="40" height="20" as="geometry" />
        </mxCell>
        <mxCell id="lmk_Pzj2UHXtX4NMEvki-35" value="so_luong" style="text;html=1;strokeColor=none;fillColor=none;align=center;verticalAlign=middle;whiteSpace=wrap;rounded=0;" vertex="1" parent="1">
          <mxGeometry x="470" y="200" width="40" height="20" as="geometry" />
        </mxCell>
        <mxCell id="lmk_Pzj2UHXtX4NMEvki-36" value="" style="shape=internalStorage;whiteSpace=wrap;html=1;backgroundOutline=1;dx=60;dy=30;" vertex="1" parent="1">
          <mxGeometry x="30" y="350" width="130" height="165" as="geometry" />
        </mxCell>
        <mxCell id="lmk_Pzj2UHXtX4NMEvki-37" value="pk" style="text;html=1;strokeColor=none;fillColor=none;align=center;verticalAlign=middle;whiteSpace=wrap;rounded=0;" vertex="1" parent="1">
          <mxGeometry x="30" y="350" width="60" height="30" as="geometry" />
        </mxCell>
        <mxCell id="lmk_Pzj2UHXtX4NMEvki-39" value="tieu_de" style="text;html=1;strokeColor=none;fillColor=none;align=center;verticalAlign=middle;whiteSpace=wrap;rounded=0;" vertex="1" parent="1">
          <mxGeometry x="100" y="390" width="40" height="20" as="geometry" />
        </mxCell>
        <mxCell id="lmk_Pzj2UHXtX4NMEvki-40" value="" style="rounded=0;whiteSpace=wrap;html=1;" vertex="1" parent="1">
          <mxGeometry x="30" y="320" width="130" height="30" as="geometry" />
        </mxCell>
        <mxCell id="lmk_Pzj2UHXtX4NMEvki-41" value="tin_tuc" style="text;html=1;strokeColor=none;fillColor=none;align=center;verticalAlign=middle;whiteSpace=wrap;rounded=0;" vertex="1" parent="1">
          <mxGeometry x="70" y="325" width="40" height="20" as="geometry" />
        </mxCell>
        <mxCell id="lmk_Pzj2UHXtX4NMEvki-42" value="fk" style="text;html=1;strokeColor=none;fillColor=none;align=center;verticalAlign=middle;whiteSpace=wrap;rounded=0;" vertex="1" parent="1">
          <mxGeometry x="40" y="430" width="40" height="20" as="geometry" />
        </mxCell>
        <mxCell id="lmk_Pzj2UHXtX4NMEvki-43" value="ten_hh" style="text;html=1;strokeColor=none;fillColor=none;align=center;verticalAlign=middle;whiteSpace=wrap;rounded=0;" vertex="1" parent="1">
          <mxGeometry x="100" y="445" width="40" height="20" as="geometry" />
        </mxCell>
        <mxCell id="lmk_Pzj2UHXtX4NMEvki-44" value="noi_dung" style="text;html=1;strokeColor=none;fillColor=none;align=center;verticalAlign=middle;whiteSpace=wrap;rounded=0;" vertex="1" parent="1">
          <mxGeometry x="100" y="425" width="40" height="20" as="geometry" />
        </mxCell>
        <mxCell id="lmk_Pzj2UHXtX4NMEvki-45" value="hinh" style="text;html=1;strokeColor=none;fillColor=none;align=center;verticalAlign=middle;whiteSpace=wrap;rounded=0;" vertex="1" parent="1">
          <mxGeometry x="100" y="410" width="40" height="20" as="geometry" />
        </mxCell>
        <mxCell id="lmk_Pzj2UHXtX4NMEvki-46" value="ngay_dang" style="text;html=1;strokeColor=none;fillColor=none;align=center;verticalAlign=middle;whiteSpace=wrap;rounded=0;" vertex="1" parent="1">
          <mxGeometry x="100" y="467.5" width="40" height="20" as="geometry" />
        </mxCell>
        <mxCell id="lmk_Pzj2UHXtX4NMEvki-75" style="edgeStyle=orthogonalEdgeStyle;rounded=0;orthogonalLoop=1;jettySize=auto;html=1;exitX=0;exitY=0.25;exitDx=0;exitDy=0;" edge="1" parent="1" source="lmk_Pzj2UHXtX4NMEvki-58">
          <mxGeometry relative="1" as="geometry">
            <mxPoint x="370" y="110" as="targetPoint" />
          </mxGeometry>
        </mxCell>
        <mxCell id="lmk_Pzj2UHXtX4NMEvki-58" value="" style="shape=internalStorage;whiteSpace=wrap;html=1;backgroundOutline=1;dx=60;dy=30;" vertex="1" parent="1">
          <mxGeometry x="330" y="332.5" width="150" height="207.5" as="geometry" />
        </mxCell>
        <mxCell id="lmk_Pzj2UHXtX4NMEvki-59" value="pk" style="text;html=1;strokeColor=none;fillColor=none;align=center;verticalAlign=middle;whiteSpace=wrap;rounded=0;" vertex="1" parent="1">
          <mxGeometry x="330" y="332.5" width="60" height="30" as="geometry" />
        </mxCell>
        <mxCell id="lmk_Pzj2UHXtX4NMEvki-60" value="ma_hd" style="text;html=1;strokeColor=none;fillColor=none;align=center;verticalAlign=middle;whiteSpace=wrap;rounded=0;" vertex="1" parent="1">
          <mxGeometry x="400" y="337.5" width="40" height="20" as="geometry" />
        </mxCell>
        <mxCell id="lmk_Pzj2UHXtX4NMEvki-61" value="ma_hh" style="text;html=1;strokeColor=none;fillColor=none;align=center;verticalAlign=middle;whiteSpace=wrap;rounded=0;" vertex="1" parent="1">
          <mxGeometry x="410" y="370" width="40" height="20" as="geometry" />
        </mxCell>
        <mxCell id="lmk_Pzj2UHXtX4NMEvki-62" value="" style="rounded=0;whiteSpace=wrap;html=1;" vertex="1" parent="1">
          <mxGeometry x="330" y="302.5" width="130" height="30" as="geometry" />
        </mxCell>
        <mxCell id="lmk_Pzj2UHXtX4NMEvki-63" value="hoa_don" style="text;html=1;strokeColor=none;fillColor=none;align=center;verticalAlign=middle;whiteSpace=wrap;rounded=0;" vertex="1" parent="1">
          <mxGeometry x="370" y="307.5" width="40" height="20" as="geometry" />
        </mxCell>
        <mxCell id="lmk_Pzj2UHXtX4NMEvki-64" value="fk" style="text;html=1;strokeColor=none;fillColor=none;align=center;verticalAlign=middle;whiteSpace=wrap;rounded=0;" vertex="1" parent="1">
          <mxGeometry x="340" y="372.5" width="40" height="20" as="geometry" />
        </mxCell>
        <mxCell id="lmk_Pzj2UHXtX4NMEvki-65" value="ten_hh" style="text;html=1;strokeColor=none;fillColor=none;align=center;verticalAlign=middle;whiteSpace=wrap;rounded=0;" vertex="1" parent="1">
          <mxGeometry x="410" y="472.5" width="40" height="20" as="geometry" />
        </mxCell>
        <mxCell id="lmk_Pzj2UHXtX4NMEvki-66" value="don_gia" style="text;html=1;strokeColor=none;fillColor=none;align=center;verticalAlign=middle;whiteSpace=wrap;rounded=0;" vertex="1" parent="1">
          <mxGeometry x="410" y="450" width="40" height="20" as="geometry" />
        </mxCell>
        <mxCell id="lmk_Pzj2UHXtX4NMEvki-67" value="thanh_tien" style="text;html=1;strokeColor=none;fillColor=none;align=center;verticalAlign=middle;whiteSpace=wrap;rounded=0;" vertex="1" parent="1">
          <mxGeometry x="410" y="507.5" width="40" height="20" as="geometry" />
        </mxCell>
        <mxCell id="lmk_Pzj2UHXtX4NMEvki-68" value="so_luong" style="text;html=1;strokeColor=none;fillColor=none;align=center;verticalAlign=middle;whiteSpace=wrap;rounded=0;" vertex="1" parent="1">
          <mxGeometry x="410" y="495" width="40" height="17.5" as="geometry" />
        </mxCell>
        <mxCell id="lmk_Pzj2UHXtX4NMEvki-69" value="ho_ten" style="text;html=1;strokeColor=none;fillColor=none;align=center;verticalAlign=middle;whiteSpace=wrap;rounded=0;" vertex="1" parent="1">
          <mxGeometry x="410" y="392.5" width="40" height="20" as="geometry" />
        </mxCell>
        <mxCell id="lmk_Pzj2UHXtX4NMEvki-73" value="dia_chi" style="text;html=1;strokeColor=none;fillColor=none;align=center;verticalAlign=middle;whiteSpace=wrap;rounded=0;" vertex="1" parent="1">
          <mxGeometry x="410" y="422.5" width="40" height="20" as="geometry" />
        </mxCell>
      </root>
    </mxGraphModel>
  </diagram>
</mxfile>
